<?xml version="1.0" encoding="UTF-8"?>
<!DOCTYPE svg PUBLIC "-//W3C//DTD SVG 1.1//EN" "http://www.w3.org/Graphics/SVG/1.1/DTD/svg11.dtd">
<!-- Creator: CorelDRAW -->
<svg xmlns="http://www.w3.org/2000/svg" xml:space="preserve" width="189.618mm" height="185.209mm" version="1.1" style="shape-rendering:geometricPrecision; text-rendering:geometricPrecision; image-rendering:optimizeQuality; fill-rule:evenodd; clip-rule:evenodd"
viewBox="0 0 18961.8 18520.9"
 xmlns:xlink="http://www.w3.org/1999/xlink"
 xmlns:xodm="http://www.corel.com/coreldraw/odm/2003">
 <defs>
  <style type="text/css">
   <![CDATA[
    .fil0 {fill:#373435}
   ]]>
  </style>
 </defs>
 <g id="Layer_x0020_1">
  <metadata id="CorelCorpID_0Corel-Layer"/>
  <path class="fil0" d="M16376.1 0c1428.08,0 2585.7,1130.74 2585.7,2525.57l0 13469.76c0,1394.87 -1157.62,2525.57 -2585.7,2525.57l-13790.4 0c-1428.04,0 -2585.7,-1130.7 -2585.7,-2525.57l0 -13469.76c0,-1394.83 1157.66,-2525.57 2585.7,-2525.57l13790.4 0zm0 1683.72c476.02,0 861.9,376.91 861.9,841.85l0 13469.76c0,464.95 -385.88,841.85 -861.9,841.85l-4309.5 0 0 -5893.1 1789.48 0c370.96,0 700.29,-231.85 817.68,-575.66l381.82 -1118.83c139.55,-408.89 -172.04,-831.08 -613.23,-831.08l-2375.75 0 0 -1683.7c0,-420.94 430.95,-841.86 861.9,-841.86l1723.8 0c476.02,0 861.9,-376.92 861.9,-841.86l0 -577.51c0,-271.93 -177.81,-515.74 -447.06,-585.14 -1129.79,-291.21 -2138.64,-291.21 -2138.64,-291.21 -2154.75,0 -3447.6,1453.86 -3447.6,2716.64l0 2104.64 -1723.8 0c-476.01,0 -861.9,376.89 -861.9,841.85l0 841.87c0,464.95 385.88,841.85 861.9,841.85l1723.8 0 0 5893.1 -6895.2 0c-476.01,0 -861.9,-376.9 -861.9,-841.85l0 -13469.76c0,-464.94 385.89,-841.85 861.9,-841.85l13790.4 0z"/>
 </g>
</svg>
