<?xml version="1.0" encoding="UTF-8"?>
<!DOCTYPE svg PUBLIC "-//W3C//DTD SVG 1.1//EN" "http://www.w3.org/Graphics/SVG/1.1/DTD/svg11.dtd">
<!-- Creator: CorelDRAW -->
<svg xmlns="http://www.w3.org/2000/svg" xml:space="preserve" width="189.618mm" height="185.209mm" version="1.1" style="shape-rendering:geometricPrecision; text-rendering:geometricPrecision; image-rendering:optimizeQuality; fill-rule:evenodd; clip-rule:evenodd"
viewBox="0 0 18530.86 18099.94"
 xmlns:xlink="http://www.w3.org/1999/xlink"
 xmlns:xodm="http://www.corel.com/coreldraw/odm/2003">
 <defs>
  <style type="text/css">
   <![CDATA[
    .fil0 {fill:#373435}
   ]]>
  </style>
 </defs>
 <g id="Layer_x0020_1">
  <metadata id="CorelCorpID_0Corel-Layer"/>
  <path class="fil0" d="M2154.78 9049.95c0,-4046.12 3280.03,-7326.15 7326.13,-7326.15 4046.1,0 7326.15,3280.03 7326.15,7326.15 0,4046.1 -3280.05,7326.15 -7326.15,7326.15 -1441.27,0 -2782.84,-415.26 -3914.77,-1132.45 -210.66,-133.42 -468.79,-169.11 -707.74,-97.82l-2481.54 740.64 934.33 -2186.3c110.44,-258.39 87.96,-554.37 -60.21,-793.12 -694.84,-1119.69 -1096.21,-2440.21 -1096.21,-3857.09zm7326.13 -9049.95c-4998.13,0 -9049.93,4051.8 -9049.93,9049.95 0,1584.26 407.8,3075.52 1124.46,4372.16l-1486.07 3477.16c-131.37,307.44 -73.14,663.06 149.42,912.49 222.54,249.53 569.28,347.78 889.62,252.11l3878.05 -1157.28c1324.78,759.34 2860.04,1193.31 4494.46,1193.31 4998.16,0 9049.95,-4051.79 9049.95,-9049.95 0,-4998.15 -4051.79,-9049.95 -9049.95,-9049.95zm1975.91 10930.97l-1132.71 797.85c-530.5,-302.18 -1117.02,-723.99 -1705.36,-1312.33 -611.61,-611.6 -1065.03,-1243.03 -1399.37,-1822.22l719.85 -611c308.9,-262.19 393.45,-704.23 203.15,-1061.97l-917.2 -1723.79c-123.51,-232.12 -346.21,-395.17 -604.78,-442.79 -258.59,-47.62 -524.76,25.39 -722.86,198.28l-271.94 237.33c-653.95,570.74 -1040.72,1508.63 -720.16,2458.27 332.32,984.46 1041.54,2533.9 2494.43,3986.8 1563.13,1563.14 3150.92,2178.71 4079.45,2417.8 748.12,192.55 1456.09,-65.59 1954.96,-472.06l509.81 -415.44c218.06,-177.64 335.71,-450.6 315.2,-731.15 -20.6,-280.56 -176.78,-533.43 -418.45,-677.45l-1446.53 -861.91c-292.18,-174.01 -659.36,-160.05 -937.49,35.78z"/>
 </g>
</svg>
